<svg width="24" height="25" viewBox="0 0 24 25" fill="none" xmlns="http://www.w3.org/2000/svg">
<path fill-rule="evenodd" clip-rule="evenodd" d="M4 5.7373L11 2.2373L18 5.7373V11.7578C17.8351 11.7442 17.6684 11.7373 17.5 11.7373C16.1938 11.7373 14.9851 12.1547 14 12.8634V12.2373H12V14.2373H12.626C11.9174 15.2224 11.5 16.4311 11.5 17.7373C11.5 19.5293 12.2856 21.1379 13.5313 22.2373H10V18.2373H8V22.2373H4V5.7373ZM10 8.2373H8V10.2373H10V8.2373ZM10 12.2373H8V14.2373H10V12.2373ZM12 8.2373H14V10.2373H12V8.2373Z" fill="#EB1C25"/>
<path fill-rule="evenodd" clip-rule="evenodd" d="M16.7032 13.9276L16.5291 13.5977L16.1727 13.7076C15.5184 13.9093 14.9283 14.2558 14.4396 14.7093L14.1664 14.9629L14.3647 15.2785C14.5371 15.553 14.5547 15.9098 14.3823 16.2083C14.2099 16.507 13.8918 16.6702 13.5676 16.6579L13.1945 16.6437L13.1117 17.0079C13.0386 17.3301 13 17.665 13 18.0085C13 18.3518 13.0385 18.6866 13.1117 19.0087L13.1944 19.3729L13.5676 19.3587C13.8917 19.3464 14.2099 19.5096 14.3823 19.8083C14.5547 20.1069 14.5371 20.4637 14.3646 20.7382L14.1662 21.0539L14.4395 21.3075C14.9282 21.761 15.5183 22.1077 16.1727 22.3094L16.5291 22.4193L16.7032 22.0894C16.8546 21.8024 17.155 21.6085 17.5 21.6085C17.845 21.6085 18.1454 21.8024 18.2968 22.0894L18.4709 22.4193L18.8273 22.3094C19.4817 22.1077 20.0718 21.761 20.5605 21.3075L20.8338 21.0539L20.6354 20.7382C20.463 20.4637 20.4453 20.1068 20.6177 19.8083C20.7902 19.5096 21.1083 19.3464 21.4324 19.3587L21.8056 19.3729L21.8883 19.0087C21.9615 18.6866 22 18.3517 22 18.0085C22 17.665 21.9614 17.3301 21.8883 17.0079L21.8055 16.6437L21.4324 16.6579C21.1083 16.6702 20.7902 16.507 20.6177 16.2083C20.4454 15.9098 20.463 15.553 20.6353 15.2785L20.8336 14.9629L20.5604 14.7093C20.0717 14.2559 19.4816 13.9093 18.8273 13.7076L18.4709 13.5977L18.2968 13.9276C18.1454 14.2145 17.845 14.4085 17.5 14.4085C17.155 14.4085 16.8546 14.2145 16.7032 13.9276ZM17.5 19.8081C18.4941 19.8081 19.3 19.0022 19.3 18.0081C19.3 17.014 18.4941 16.2081 17.5 16.2081C16.5059 16.2081 15.7 17.014 15.7 18.0081C15.7 19.0022 16.5059 19.8081 17.5 19.8081Z" fill="#EB1C25"/>
</svg>
