<svg width="161" height="21" viewBox="0 0 161 21" fill="none" xmlns="http://www.w3.org/2000/svg">
<path d="M0 20.8645V11.0721V1.27979H3.10851H6.21703L6.55903 1.5981C6.97898 1.98903 10.7997 5.52869 13.6645 8.18081C18.7022 12.8446 18.2405 12.4459 18.3915 12.2639C18.4636 12.177 20.056 10.6875 21.4123 9.43838C21.7723 9.1068 22.2756 8.63759 22.5306 8.39581C22.9274 8.01955 25.0309 6.06424 26.4841 4.72075C26.725 4.49795 27.1193 4.12971 27.3603 3.90244C27.6013 3.67517 28.079 3.23144 28.4221 2.91639C28.7652 2.60134 29.2308 2.16857 29.457 1.95472C29.6831 1.74087 29.9453 1.50149 30.0396 1.42282L30.2112 1.27979H45.2737H60.3362V4.79849V8.31719H48.3617H36.3872V11.0721V13.8271H48.3617H60.3362V17.3458V20.8645H44.8157H29.2953V16.3911C29.2953 13.9308 29.2768 11.9181 29.2543 11.9186C29.2319 11.9191 29.1374 11.9866 29.0445 12.0686C28.838 12.251 25.3125 15.5282 24.6299 16.1724C24.3594 16.4277 23.8318 16.9189 23.4577 17.264C23.0836 17.609 22.4089 18.2347 21.9585 18.6543C21.508 19.0739 21.0045 19.5419 20.8395 19.6942C20.6744 19.8464 20.3264 20.1721 20.066 20.4178L19.5927 20.8645L18.184 20.8639L16.7752 20.8633L16.4206 20.5267C16.024 20.1504 14.1593 18.3699 9.98985 14.3863C8.44314 12.9085 7.15661 11.6995 7.13091 11.6995C7.10522 11.6995 7.08863 11.7548 7.09409 11.8223C7.09954 11.8897 7.10134 13.9519 7.09801 16.4048L7.09196 20.8645H3.54598H0Z" fill="#EB1C25"/>
<path d="M155.551 2.51817C154.795 2.2543 154.418 1.76653 154.31 0.911406L154.273 0.625H154.984H155.696V0.807866C155.696 1.04408 155.892 1.33589 156.133 1.45684C156.395 1.58858 156.844 1.581 157.12 1.44009C157.348 1.32378 157.547 1.00355 157.549 0.747745C157.55 0.6268 157.561 0.625 158.26 0.625H158.97L158.937 0.856853C158.812 1.74324 158.508 2.17814 157.804 2.47442C157.493 2.6054 157.408 2.61587 156.65 2.61604C156.003 2.61615 155.773 2.59569 155.551 2.51817Z" fill="white"/>
<path d="M67.4824 1.3402L67.7415 1.31974C67.8841 1.3085 68.0007 1.29487 68.0007 1.28947C68.0007 1.28406 67.9884 5.68004 67.9734 11.0584L67.9461 20.8371L67.7143 20.8538L67.4824 20.8706V11.1054V1.3402Z" fill="white"/>
<path d="M75.0654 10.3901V5.83355V1.27703L75.9694 1.29197L76.8734 1.30692L78.5411 4.07399C79.4583 5.59587 80.2266 6.83003 80.2483 6.81661C80.27 6.80319 81.0214 5.55201 81.9181 4.03618L83.5484 1.28019L84.4349 1.27992L85.3214 1.27964V3.86199C85.3214 5.28235 85.3377 7.3322 85.3576 8.41721L85.3937 10.3901H84.3756C83.8157 10.3901 83.3519 10.384 83.3452 10.3764C83.3384 10.3689 83.32 9.17878 83.3043 7.73164L83.2757 5.10041L81.9937 7.25451L80.7117 9.40861L80.2003 9.3947L79.6889 9.38084L78.4 7.27017L77.1111 5.15949L77.0969 7.77479L77.0828 10.3901H76.0741H75.0654Z" fill="white"/>
<path d="M120.583 5.88942C121.008 4.48074 122.228 3.48901 123.771 3.29785C124.929 3.15448 126.128 3.47264 126.842 4.11255C127.153 4.39132 127.522 4.94035 127.477 5.05666C127.462 5.09463 127.111 5.30744 126.698 5.52958L125.946 5.93355L125.843 5.80235C125.385 5.21978 125.073 5.03609 124.482 5.0008C123.711 4.95475 123.091 5.29184 122.76 5.93808C122.588 6.2726 122.527 7.00738 122.633 7.47785C122.773 8.10658 123.344 8.63177 124.022 8.75713C124.746 8.89101 125.419 8.59391 125.855 7.94767L125.937 7.82639L126.714 8.24902C127.141 8.48148 127.491 8.70351 127.491 8.74246C127.491 8.8771 127.127 9.38237 126.85 9.63146C126.514 9.93303 125.946 10.2397 125.5 10.3592C125.32 10.4075 124.927 10.4616 124.627 10.4795C122.707 10.5937 121.117 9.58695 120.609 7.93518C120.444 7.40017 120.432 6.39224 120.583 5.88942Z" fill="white"/>
<path d="M95.2502 10.3901V6.87138V3.35268H96.2867H97.3232V4.71652V6.08035H97.837H98.3509L99.2964 4.71903L100.242 3.3577L101.319 3.35519C102.028 3.35355 102.397 3.37204 102.397 3.40925C102.397 3.44034 102.162 3.78464 101.876 4.17426C101.583 4.57304 101.372 4.90974 101.393 4.94444C101.415 4.97979 101.407 4.99114 101.375 4.97106C101.318 4.93593 100.051 6.62796 100.051 6.73898C100.051 6.77117 100.627 7.59967 101.33 8.58011L102.61 10.3628L101.398 10.378C100.262 10.3923 100.182 10.3868 100.105 10.2891C100.06 10.2318 99.6435 9.64194 99.1791 8.97824L98.3345 7.77151H97.8289H97.3232V9.0808V10.3901H96.2867H95.2502Z" fill="white"/>
<path d="M127.819 5.09839V4.22553V3.35268H131.201H134.583V4.22553V5.09839H133.41H132.237V7.74424V10.3901H131.201H130.164V7.74424V5.09839H128.992H127.819Z" fill="white"/>
<path d="M153.077 10.3901V6.87138V3.35268H154.113H155.149L155.163 5.39435L155.177 7.43601L156.841 5.3968L158.505 3.35759L159.446 3.35513L160.387 3.35268V6.87258V10.3925L159.364 10.3776L158.341 10.3628L158.33 8.37804C158.323 7.28643 158.31 6.38574 158.301 6.37652C158.288 6.36316 155.84 9.34141 155.177 10.178L155.014 10.3845L154.045 10.3872L153.077 10.3901Z" fill="white"/>
<path d="M135.728 18.4367C135.758 17.9567 135.783 17.5209 135.783 17.4684C135.783 17.3805 135.874 17.3729 136.929 17.3729H138.075V18.8732V20.3734H137.802H137.529V19.1459V17.9185H136.91H136.291L136.256 18.5332C136.175 19.9493 135.943 20.4279 135.338 20.4279C135.034 20.4279 134.987 20.3715 135.043 20.0729C135.074 19.9091 135.101 19.8824 135.232 19.8824C135.559 19.8824 135.654 19.6039 135.728 18.4367Z" fill="white"/>
<path d="M142.657 20.3734V18.8732V17.3729H144.048H145.439V18.8732V20.3734H145.139H144.839V19.1459V17.9185H144.048H143.257V19.1459V20.3734H142.957H142.657Z" fill="white"/>
<path d="M146.421 20.3734V18.8704V17.3675L146.728 17.3838L147.035 17.4002L147.587 18.3628C147.891 18.8922 148.154 19.3168 148.171 19.3064C148.189 19.2961 148.457 18.8567 148.769 18.3302L149.335 17.3729H149.597H149.858V18.8732V20.3734H149.614H149.37L149.355 19.335L149.34 18.2966L148.822 19.1699C148.129 20.3368 148.176 20.3362 147.5 19.1878L146.994 18.3294L146.979 19.3514L146.965 20.3734H146.693H146.421Z" fill="white"/>
<path d="M154.386 20.3734V18.8732V17.3729H154.659H154.932V18.0003V18.6277H155.75H156.568V18.0003V17.3729H156.868H157.168V18.8732V20.3734H156.868H156.568V19.7733V19.1732H155.75H154.932V19.7733V20.3734H154.659H154.386Z" fill="white"/>
<path d="M157.659 17.9185V17.6457V17.3729H159.023H160.387V17.6457V17.9185H159.869H159.351V19.1459V20.3734H159.051H158.751V19.1459V17.9185H158.205H157.659Z" fill="white"/>
<path fill-rule="evenodd" clip-rule="evenodd" d="M89.4533 3.29982C89.2205 3.32611 88.8277 3.40025 88.5805 3.46451C88.1158 3.58541 87.1217 4.03378 87.1217 4.12248C87.1217 4.18751 87.6891 5.31262 87.7882 5.44426C87.8604 5.54 87.8802 5.53564 88.2198 5.34896C89.1669 4.82841 90.482 4.79502 91.0316 5.27755C91.2587 5.47694 91.4285 5.81043 91.4302 6.06039L91.4314 6.23136L90.1631 6.25858C89.1945 6.27936 88.8109 6.30839 88.5401 6.38127C87.8002 6.5805 87.2911 6.95403 87.0273 7.491C86.8927 7.76513 86.8762 7.85858 86.8762 8.34531C86.8762 8.85189 86.8892 8.91818 87.0541 9.25319C87.1524 9.45302 87.3321 9.70517 87.4562 9.81722C87.7548 10.087 88.3753 10.3729 88.8129 10.4422C89.8804 10.6113 90.82 10.3893 91.3632 9.83948L91.5951 9.60479V9.99746V10.3901H92.5498H93.5045L93.5035 8.11247C93.5025 5.63471 93.4797 5.38654 93.1985 4.78946C93.0091 4.38723 92.4852 3.85692 92.0861 3.66342C91.4316 3.34608 90.3575 3.1978 89.4533 3.29982ZM89.0356 7.79672C89.1131 7.7192 89.2727 7.62155 89.3902 7.57965C89.5394 7.52652 89.8797 7.50284 90.5177 7.50114L91.4314 7.49875V7.85608C91.4314 8.2811 91.3535 8.45338 91.0397 8.72195C90.5052 9.17954 89.5603 9.20818 89.0941 8.78097C88.9067 8.60919 88.8947 8.57836 88.8947 8.26795C88.8947 7.98553 88.9152 7.91723 89.0356 7.79672Z" fill="white"/>
<path fill-rule="evenodd" clip-rule="evenodd" d="M107.17 3.29807C106.564 3.38285 106.066 3.60799 105.684 3.96989L105.506 4.13781V3.74525V3.35268H104.524H103.542V8.12611V12.8995H104.579H105.615V11.3129V9.72628L105.826 9.89348C106.373 10.3263 107.145 10.5387 107.961 10.4805C108.856 10.4165 109.562 10.1018 110.176 9.49219C111.619 8.05885 111.498 5.268 109.939 4.0334C109.194 3.4434 108.137 3.16289 107.17 3.29807ZM105.775 5.95838C105.976 5.54191 106.388 5.17684 106.815 5.03713C106.89 5.01258 107.161 4.99905 107.416 5.00712C107.808 5.01956 107.924 5.04629 108.169 5.17995C108.866 5.5597 109.211 6.36524 109.056 7.25375C108.868 8.33691 108.046 8.9305 106.99 8.74666C106.377 8.63979 105.869 8.17952 105.692 7.5695C105.564 7.12996 105.606 6.30817 105.775 5.95838Z" fill="white"/>
<path fill-rule="evenodd" clip-rule="evenodd" d="M115.261 3.29785C113.77 3.48241 112.641 4.36923 112.154 5.73803C111.994 6.18641 111.954 7.22336 112.077 7.74424C112.308 8.72964 113.019 9.62415 113.911 10.0523C114.497 10.3341 114.896 10.4381 115.544 10.4788C116.437 10.535 117.306 10.3449 117.99 9.94389C118.496 9.64707 119.041 9.05996 119.303 8.52921C119.609 7.9079 119.709 7.40655 119.672 6.68044C119.601 5.32037 118.93 4.28871 117.717 3.67569C117.09 3.35862 116.055 3.19944 115.261 3.29785ZM114.226 6.05608C114.453 5.55053 114.77 5.24536 115.255 5.06479C115.391 5.01422 115.622 4.9936 115.926 5.00478C116.317 5.01918 116.436 5.04705 116.685 5.18284C117.041 5.37639 117.354 5.75363 117.484 6.14511C117.595 6.47816 117.611 7.19532 117.516 7.53459C117.373 8.04204 116.867 8.5746 116.401 8.7064C116.275 8.74218 115.993 8.77006 115.775 8.76837C115.271 8.7645 114.888 8.58922 114.541 8.20358C114.207 7.83125 114.098 7.49422 114.102 6.8441C114.104 6.43124 114.13 6.27097 114.226 6.05608Z" fill="white"/>
<path fill-rule="evenodd" clip-rule="evenodd" d="M121.681 18.0685C121.608 19.4023 121.461 19.8824 121.126 19.8824C121.003 19.8824 120.999 19.8971 120.999 20.3461V20.8098H121.272H121.545V20.5916V20.3734H122.745H123.945V20.5916V20.8098H124.218H124.491V20.3461V19.8824H124.273H124.054V18.6277V17.3729H122.887H121.72L121.681 18.0685ZM122.178 18.7172C122.194 18.4129 122.218 18.1087 122.231 18.0412C122.255 17.9229 122.278 17.9185 122.855 17.9185H123.454V18.9004V19.8824H122.699H121.944L122.047 19.5765C122.108 19.3956 122.162 19.0444 122.178 18.7172Z" fill="white"/>
<path fill-rule="evenodd" clip-rule="evenodd" d="M125.715 17.5025C125.221 17.7327 124.873 18.2974 124.873 18.8695C124.873 19.5518 125.315 20.1679 125.934 20.3477C126.474 20.5046 127.122 20.4031 127.505 20.1016C127.691 19.9553 127.692 19.8999 127.513 19.7128L127.371 19.5646L127.12 19.7235C126.909 19.8577 126.814 19.8822 126.512 19.8815C125.982 19.8802 125.594 19.6258 125.497 19.2141L125.461 19.0641H126.675H127.888L127.858 18.7681C127.821 18.4143 127.65 18.0046 127.447 17.7889C127.059 17.3739 126.271 17.2437 125.715 17.5025ZM125.473 18.5704C125.473 18.3807 125.776 18.0217 126.018 17.9252C126.43 17.7609 126.89 17.9117 127.149 18.2961C127.372 18.6262 127.368 18.6277 126.373 18.6277C125.781 18.6277 125.473 18.6081 125.473 18.5704Z" fill="white"/>
<path fill-rule="evenodd" clip-rule="evenodd" d="M128.637 20.3734V18.8732V17.3729H129.473C130.396 17.3729 130.769 17.4451 130.974 17.6633C131.251 17.9588 131.23 18.4476 130.927 18.7019C130.777 18.8281 130.773 18.8413 130.871 18.8725C130.93 18.8911 131.043 18.9835 131.122 19.0779C131.252 19.2319 131.265 19.2847 131.245 19.5902C131.22 19.9805 131.131 20.1152 130.792 20.2708C130.606 20.3559 130.428 20.3711 129.605 20.3722L128.637 20.3734ZM129.237 18.2431V18.6222L129.551 18.6386C130.064 18.6653 130.387 18.6067 130.501 18.4666C130.642 18.2919 130.626 18.1098 130.457 17.977C130.334 17.88 130.237 17.8639 129.775 17.8639H129.237V18.2431ZM129.237 19.937V19.4927V19.0484L129.811 19.0777C130.437 19.1097 130.629 19.1844 130.688 19.4198C130.73 19.5886 130.593 19.8127 130.404 19.8849C130.328 19.9135 130.035 19.937 129.752 19.937H129.237Z" fill="white"/>
<path fill-rule="evenodd" clip-rule="evenodd" d="M132.74 17.4415C132.497 17.5195 132.096 17.8825 131.949 18.157C131.851 18.3408 131.829 18.4723 131.829 18.8732C131.828 19.3147 131.844 19.3933 131.989 19.6533C132.287 20.1925 132.861 20.4693 133.558 20.4108C133.815 20.3893 134.014 20.3338 134.203 20.2309C134.602 20.0138 134.623 19.9722 134.451 19.7461C134.313 19.566 134.201 19.5003 134.201 19.5996C134.201 19.6241 134.101 19.7003 133.979 19.769C133.791 19.8747 133.696 19.8909 133.36 19.8739C133.028 19.8571 132.931 19.8292 132.764 19.7017C132.562 19.5477 132.401 19.3026 132.401 19.1497C132.401 19.0778 132.565 19.0642 133.588 19.0516L134.774 19.0368L134.758 18.7383C134.712 17.9103 134.131 17.3681 133.301 17.3791C133.091 17.3818 132.839 17.4099 132.74 17.4415ZM132.401 18.5669C132.401 18.4232 132.647 18.0878 132.83 17.9816C133.257 17.7338 133.789 17.8677 134.077 18.2961C134.3 18.6262 134.296 18.6277 133.301 18.6277C132.676 18.6277 132.401 18.6091 132.401 18.5669Z" fill="white"/>
<path fill-rule="evenodd" clip-rule="evenodd" d="M139.682 17.502C139.349 17.6573 138.991 18.0481 138.898 18.36C138.667 19.1303 138.965 19.9071 139.623 20.2525C139.862 20.3779 139.969 20.3992 140.366 20.3999C140.881 20.4008 141.164 20.2953 141.494 19.9796C141.901 19.5909 142.041 18.7855 141.798 18.2373C141.651 17.9035 141.297 17.5667 140.982 17.4592C140.596 17.3277 140.015 17.3468 139.682 17.502ZM139.933 19.8025C139.225 19.4363 139.236 18.2927 139.951 17.9678C140.235 17.8392 140.497 17.839 140.779 17.9674C141.298 18.203 141.486 18.8325 141.211 19.4128C141.021 19.8127 140.349 20.0176 139.933 19.8025Z" fill="white"/>
<path fill-rule="evenodd" clip-rule="evenodd" d="M139.195 3.30134C138.575 3.39719 138.082 3.62599 137.734 3.97912L137.584 4.13132V3.74197V3.35268H136.602H135.62V8.12611V12.8995H136.656H137.693V11.3073V9.71504L137.843 9.85295C138.81 10.7424 140.789 10.6895 141.988 9.74209C143.631 8.44339 143.668 5.42828 142.057 4.08932C141.922 3.9771 141.797 3.8615 141.778 3.83253C141.76 3.80351 141.723 3.77743 141.696 3.7746C141.67 3.77176 141.476 3.69129 141.266 3.59577C141.056 3.5003 140.774 3.39594 140.639 3.36397C140.266 3.2757 139.559 3.24504 139.195 3.30134ZM137.662 6.62589C137.741 5.84801 138.204 5.2506 138.893 5.04029C138.968 5.01738 139.194 4.99654 139.396 4.99398C140.097 4.98498 140.665 5.33826 140.959 5.96639C141.088 6.23998 141.102 6.33567 141.102 6.89866C141.102 7.47567 141.09 7.55106 140.949 7.83774C140.649 8.44869 140.09 8.7771 139.357 8.77235C138.273 8.76537 137.541 7.83785 137.662 6.62589Z" fill="white"/>
<path fill-rule="evenodd" clip-rule="evenodd" d="M147.294 3.30238C145.726 3.50134 144.47 4.58068 144.126 6.0258C144.025 6.44963 144.04 7.39248 144.154 7.82607C144.482 9.06662 145.47 10.0234 146.776 10.3626C147.553 10.5645 148.581 10.5212 149.369 10.2533C151.128 9.65497 152.087 7.85416 151.649 5.97125C151.617 5.83623 151.493 5.51709 151.373 5.26205C151.194 4.88378 151.072 4.71788 150.71 4.3617C150.065 3.72577 149.407 3.4177 148.441 3.29992C147.927 3.23719 147.806 3.23746 147.294 3.30238ZM146.784 5.37569C146.924 5.25218 147.152 5.1153 147.289 5.07144C147.664 4.95197 148.349 4.9865 148.664 5.14078C149.264 5.43542 149.593 5.97932 149.63 6.74035C149.691 7.98826 149.005 8.77803 147.864 8.77296C146.907 8.76876 146.219 8.07516 146.159 7.05501C146.117 6.31433 146.311 5.79209 146.784 5.37569Z" fill="white"/>
<path fill-rule="evenodd" clip-rule="evenodd" d="M151.545 17.4477C151.215 17.5655 150.963 17.7999 150.787 18.1506C150.646 18.4332 150.622 18.5428 150.622 18.9029C150.622 19.2583 150.646 19.3701 150.774 19.6161C151.12 20.2786 151.941 20.5812 152.744 20.3426C152.904 20.2952 153.113 20.1802 153.216 20.0835L153.4 19.9097L153.243 19.7262L153.086 19.5427L152.884 19.6968C152.724 19.8187 152.611 19.8553 152.339 19.8726C152.151 19.8846 151.909 19.8654 151.801 19.8299C151.582 19.7575 151.247 19.4004 151.208 19.1974L151.183 19.0641H152.375H153.568V18.7982C153.568 18.2454 153.27 17.7515 152.792 17.5136C152.567 17.4013 152.433 17.3734 152.125 17.3753C151.914 17.3766 151.652 17.4092 151.545 17.4477ZM151.251 18.4251C151.357 18.1711 151.457 18.0602 151.676 17.9519C151.892 17.8453 152.259 17.84 152.499 17.94C152.688 18.0192 152.928 18.2937 152.992 18.5049L153.03 18.6277H152.098H151.166L151.251 18.4251Z" fill="white"/>
</svg>
