<svg width="624" height="624" viewBox="0 0 624 624" fill="none" xmlns="http://www.w3.org/2000/svg">
<path fill-rule="evenodd" clip-rule="evenodd" d="M599.334 196C599.846 197.264 600.349 198.531 600.845 199.802L598.981 200.528C598.489 199.266 597.989 198.006 597.48 196.75L599.334 196ZM23.3148 199.39C23.6895 198.429 24.0685 197.47 24.4519 196.514L26.3082 197.258C25.9273 198.208 25.5507 199.16 25.1785 200.116L23.3148 199.39ZM19.0528 211.002C19.7263 209.049 20.4176 207.107 21.1265 205.175L23.0041 205.864C22.2998 207.783 21.6128 209.713 20.9436 211.654L19.0528 211.002ZM603.717 207.466C604.641 210.032 605.531 212.611 606.387 215.202L604.488 215.829C603.637 213.254 602.753 210.692 601.835 208.143L603.717 207.466ZM16.1579 219.816C16.4655 218.831 16.7776 217.849 17.0941 216.869L18.9973 217.483C18.6828 218.457 18.3727 219.433 18.0671 220.412C17.6644 221.701 17.2706 222.992 16.8857 224.283L14.9691 223.712C15.3564 222.412 15.7527 221.114 16.1579 219.816L16.1579 219.816ZM608.851 223.006C609.638 225.616 610.391 228.238 611.11 230.872L609.18 231.398C608.466 228.782 607.718 226.176 606.937 223.582L608.851 223.006ZM10.737 239.37C11.373 236.749 12.0446 234.13 12.7521 231.513L14.6828 232.034C13.9798 234.635 13.3125 237.237 12.6806 239.841L10.737 239.37ZM613.16 238.795C613.807 241.443 614.421 244.101 614.999 246.769L613.044 247.193C612.47 244.542 611.86 241.901 611.217 239.27L613.16 238.795ZM7.32284 255.227C7.82174 252.576 8.3564 249.924 8.92714 247.274L10.8823 247.695C10.3153 250.328 9.78404 252.962 9.28836 255.597L7.32284 255.227ZM616.627 254.789C617.134 257.467 617.606 260.154 618.042 262.85L616.068 263.169C615.634 260.491 615.165 257.821 614.662 255.161L616.627 254.789ZM4.74194 271.241C5.10139 268.566 5.49668 265.889 5.92814 263.213L7.90266 263.531C7.47399 266.19 7.08125 268.849 6.72413 271.507L4.74194 271.241ZM619.243 270.946C619.607 273.646 619.935 276.354 620.228 279.069L618.239 279.284C617.949 276.586 617.622 273.896 617.261 271.212L619.243 270.946ZM3.00573 287.369C3.224 284.677 3.47812 281.983 3.7684 279.287L5.7569 279.501C5.46851 282.179 5.21604 284.856 4.99918 287.53L3.00573 287.369ZM620.997 287.216C621.217 289.932 621.401 292.654 621.549 295.382L619.552 295.49C619.405 292.78 619.222 290.076 619.003 287.378L620.997 287.216ZM2.12166 303.565C2.1977 300.864 2.30948 298.16 2.45733 295.453L4.45434 295.562C4.30745 298.251 4.1964 300.938 4.12086 303.621L2.12166 303.565ZM621.883 303.559C621.958 306.282 621.997 309.01 622 311.742L620 311.744C619.998 309.03 619.959 306.32 619.884 303.615L621.883 303.559ZM2.09339 319.785C2.02675 317.083 1.99567 314.376 2.00048 311.665L4.00047 311.669C3.99568 314.362 4.02656 317.051 4.09277 319.736L2.09339 319.785ZM621.899 319.924C621.829 322.647 621.722 325.373 621.579 328.102L619.582 327.997C619.724 325.286 619.83 322.578 619.899 319.873L621.899 319.924ZM2.92101 335.984C2.71195 333.29 2.53816 330.589 2.39996 327.883L4.39735 327.781C4.53464 330.469 4.7073 333.153 4.91501 335.83L2.92101 335.984ZM621.042 336.269C620.828 338.983 620.576 341.7 620.289 344.419L618.3 344.208C618.586 341.507 618.835 338.808 619.049 336.111L621.042 336.269ZM4.60133 352.117C4.2507 349.438 3.93498 346.751 3.65448 344.058L5.64372 343.851C5.92239 346.527 6.23607 349.196 6.58442 351.858L4.60133 352.117ZM619.319 352.543C618.96 355.241 618.565 357.94 618.134 360.64L616.159 360.324C616.588 357.642 616.98 354.961 617.336 352.28L619.319 352.543ZM7.12819 368.139C6.63728 365.482 6.18084 362.817 5.7592 360.143L7.73479 359.832C8.15369 362.488 8.60718 365.136 9.09491 367.776L7.12819 368.139ZM616.735 368.703C616.234 371.379 615.697 374.054 615.124 376.728L613.168 376.309C613.738 373.652 614.272 370.994 614.769 368.336L616.735 368.703ZM10.4928 384.006C9.86325 381.379 9.26772 378.742 8.7065 376.095L10.663 375.68C11.2206 378.31 11.8123 380.93 12.4378 383.54L10.4928 384.006ZM613.302 384.707C612.662 387.351 611.986 389.993 611.273 392.633L609.342 392.112C610.05 389.489 610.722 386.864 611.358 384.237L613.302 384.707ZM14.6839 399.676C13.9178 397.085 13.1851 394.483 12.4863 391.87L14.4184 391.353C15.1127 393.949 15.8407 396.535 16.6019 399.109L14.6839 399.676ZM609.038 400.504C608.648 401.811 608.25 403.116 607.842 404.422C607.437 405.719 607.024 407.013 606.603 408.301L604.702 407.681C605.12 406.401 605.53 405.116 605.933 403.826C606.338 402.529 606.734 401.231 607.121 399.933L609.038 400.504ZM19.6884 415.105C18.788 412.557 17.9204 409.997 17.0861 407.425L18.9886 406.808C19.8176 409.364 20.6795 411.908 21.5742 414.439L19.6884 415.105ZM603.988 415.978C603.08 418.533 602.142 421.069 601.174 423.586L599.307 422.868C600.269 420.368 601.201 417.848 602.103 415.309L603.988 415.978ZM25.4915 430.254C24.4592 427.756 23.4592 425.244 22.4919 422.719L24.3596 422.004C25.3207 424.513 26.3143 427.009 27.34 429.49L25.4915 430.254ZM598.165 431.116C597.126 433.62 596.057 436.105 594.959 438.569L593.132 437.756C594.223 435.307 595.285 432.838 596.317 430.35L598.165 431.116ZM32.0757 445.079C30.9145 442.638 29.7849 440.181 28.6874 437.71L30.5153 436.899C31.6058 439.354 32.7281 441.795 33.8819 444.221L32.0757 445.079ZM591.561 445.93C590.393 448.377 589.195 450.803 587.969 453.208L586.187 452.299C587.406 449.91 588.596 447.5 589.757 445.069L591.561 445.93ZM39.4224 459.542C38.1355 457.164 36.8796 454.77 35.655 452.359L37.4383 451.454C38.655 453.849 39.9029 456.228 41.1815 458.591L39.4224 459.542ZM584.191 460.379C582.896 462.761 581.572 465.121 580.219 467.459L578.488 466.458C579.831 464.136 581.147 461.791 582.434 459.424L584.191 460.379ZM47.5116 473.603C46.1026 471.295 44.7238 468.969 43.3757 466.626L45.1094 465.629C46.4489 467.957 47.8188 470.269 49.2188 472.562L47.5116 473.603ZM576.07 474.42C574.651 476.73 573.204 479.018 571.73 481.283L570.054 480.192C571.519 477.942 572.956 475.669 574.366 473.374L576.07 474.42ZM56.322 487.224C54.7945 484.993 53.2967 482.742 51.8287 480.472L53.5082 479.387C54.9667 481.641 56.455 483.878 57.9726 486.095L56.322 487.224ZM567.22 488.013C565.682 490.246 564.116 492.455 562.523 494.639L560.907 493.462C562.489 491.291 564.045 489.097 565.574 486.879L567.22 488.013ZM65.8304 500.368C64.1886 498.219 62.5757 496.049 60.9918 493.86L62.6125 492.689C64.1861 494.864 65.7887 497.019 67.4199 499.155L65.8304 500.368ZM557.663 501.125C556.01 503.272 554.33 505.394 552.625 507.492L551.073 506.231C552.767 504.147 554.436 502.038 556.078 499.905L557.663 501.125ZM76.0123 512.998C74.2601 510.937 72.5359 508.855 70.84 506.751L72.3973 505.497C74.0823 507.587 75.7953 509.656 77.5362 511.703L76.0123 512.998ZM547.427 513.715C545.664 515.77 543.876 517.8 542.063 519.805L540.579 518.464C542.38 516.473 544.157 514.456 545.909 512.413L547.427 513.715ZM86.8414 525.079C84.9831 523.112 83.152 521.122 81.3484 519.11L82.8379 517.776C84.6299 519.775 86.4492 521.752 88.2954 523.706L86.8414 525.079ZM536.543 525.747C534.675 527.707 532.783 529.639 530.867 531.545L529.456 530.128C531.36 528.235 533.239 526.314 535.095 524.368L536.543 525.747ZM98.2897 536.575C96.3299 534.708 94.3965 532.817 92.4897 530.902L93.9072 529.491C95.8016 531.394 97.7225 533.273 99.6696 535.128L98.2897 536.575ZM525.042 537.191C523.074 539.049 521.084 540.879 519.071 542.682L517.736 541.193C519.736 539.402 521.714 537.583 523.669 535.738L525.042 537.191ZM110.327 547.456C108.271 545.693 106.24 543.905 104.235 542.093L105.576 540.61C107.568 542.411 109.586 544.187 111.629 545.938L110.327 547.456ZM512.957 548.016C510.895 549.768 508.812 551.491 506.707 553.187L505.452 551.63C507.543 549.946 509.613 548.233 511.661 546.493L512.957 548.016ZM122.922 557.688C120.774 556.035 118.651 554.356 116.552 552.651L117.814 551.099C119.898 552.793 122.008 554.461 124.142 556.103L122.922 557.688ZM500.322 558.194C498.172 559.835 496.002 561.448 493.811 563.031L492.639 561.411C494.815 559.838 496.972 558.236 499.108 556.605L500.322 558.194ZM136.038 567.241C133.805 565.703 131.595 564.138 129.41 562.546L130.588 560.93C132.759 562.512 134.954 564.067 137.173 565.595L136.038 567.241ZM487.173 567.699C484.94 569.226 482.689 570.723 480.418 572.191L479.332 570.512C481.588 569.054 483.825 567.566 486.044 566.049L487.173 567.699ZM149.637 576.088C147.326 574.669 145.037 573.223 142.771 571.749L143.862 570.073C146.113 571.538 148.387 572.975 150.683 574.384L149.637 576.088ZM473.547 576.506C471.238 577.915 468.911 579.293 466.566 580.64L465.569 578.907C467.899 577.568 470.211 576.199 472.505 574.799L473.547 576.506ZM163.684 584.205C161.301 582.91 158.939 581.587 156.6 580.235L157.601 578.504C159.925 579.847 162.271 581.162 164.639 582.449L163.684 584.205ZM459.48 584.592C457.101 585.879 454.706 587.134 452.294 588.358L451.389 586.575C453.785 585.359 456.165 584.112 458.529 582.834L459.48 584.592ZM178.138 591.573C175.69 590.405 173.263 589.208 170.857 587.981L171.766 586.2C174.156 587.419 176.567 588.608 178.999 589.769L178.138 591.573ZM445.012 591.936C442.57 593.097 440.112 594.226 437.64 595.323L436.828 593.496C439.285 592.406 441.727 591.284 444.153 590.13L445.012 591.936ZM192.958 598.174C190.452 597.135 187.967 596.067 185.501 594.969L186.315 593.143C188.765 594.234 191.234 595.295 193.724 596.327L192.958 598.174ZM430.181 598.518C427.682 599.549 425.169 600.549 422.643 601.516L421.927 599.649C424.437 598.688 426.934 597.695 429.417 596.67L430.181 598.518ZM208.101 603.994C205.545 603.087 203.008 602.15 200.49 601.182L201.208 599.316C203.71 600.277 206.231 601.209 208.77 602.11L208.101 603.994ZM415.026 604.318C412.477 605.219 409.916 606.086 407.343 606.92L406.726 605.018C409.283 604.189 411.827 603.328 414.36 602.433L415.026 604.318ZM219.662 607.848C218.364 607.443 217.07 607.03 215.781 606.609L216.401 604.709C217.682 605.127 218.968 605.537 220.258 605.939C221.548 606.342 222.839 606.735 224.131 607.12L223.559 609.036C222.26 608.649 220.961 608.253 219.662 607.848ZM399.591 609.321C396.999 610.087 394.396 610.819 391.782 611.518L391.265 609.586C393.862 608.892 396.449 608.165 399.024 607.404L399.591 609.321ZM239.224 613.267C236.602 612.631 233.982 611.959 231.364 611.252L231.885 609.322C234.487 610.025 237.09 610.692 239.695 611.324L239.224 613.267ZM383.915 613.51C381.287 614.14 378.649 614.735 376.001 615.296L375.586 613.34C378.217 612.783 380.838 612.191 383.449 611.566L383.915 613.51ZM255.087 616.679C252.434 616.181 249.782 615.646 247.131 615.076L247.552 613.121C250.186 613.688 252.821 614.219 255.457 614.715L255.087 616.679ZM368.042 616.874C365.384 617.364 362.718 617.821 360.043 618.242L359.732 616.267C362.389 615.849 365.038 615.395 367.679 614.908L368.042 616.874ZM271.107 619.259C268.431 618.9 265.753 618.505 263.076 618.073L263.394 616.1C266.054 616.528 268.714 616.921 271.373 617.278L271.107 619.259ZM352.014 619.4C349.334 619.75 346.646 620.066 343.952 620.346L343.744 618.358C346.421 618.079 349.092 617.766 351.755 617.417L352.014 619.4ZM287.241 620.995C284.548 620.777 281.853 620.522 279.156 620.232L279.37 618.245C282.049 618.533 284.727 618.785 287.402 619.002L287.241 620.995ZM335.875 621.079C333.179 621.288 330.478 621.462 327.771 621.6L327.669 619.604C330.358 619.466 333.042 619.294 335.72 619.086L335.875 621.079ZM303.443 621.878C300.741 621.802 298.036 621.691 295.328 621.543L295.437 619.547C298.127 619.693 300.815 619.804 303.5 619.88L303.443 621.878ZM319.67 621.907C316.967 621.973 314.259 622.004 311.547 622L311.55 620C314.244 620.005 316.935 619.974 319.621 619.908L319.67 621.907Z" fill="#FFC046"/>
</svg>
