<svg width="44" height="44" viewBox="0 0 44 44" fill="none" xmlns="http://www.w3.org/2000/svg">
<circle cx="22" cy="22" r="10" fill="#E19E17"/>
<rect x="19" width="6" height="9" rx="3" fill="#E19E17"/>
<rect x="35.8943" y="5" width="6" height="9" rx="3" transform="rotate(50 35.8943 5)" fill="#E19E17"/>
<rect x="4" y="9.59619" width="6" height="9" rx="3" transform="rotate(-50 4 9.59619)" fill="#E19E17"/>
<rect x="19" y="35" width="6" height="9" rx="3" fill="#E19E17"/>
<rect x="9" y="19" width="6" height="9" rx="3" transform="rotate(90 9 19)" fill="#E19E17"/>
<rect x="44" y="19" width="6" height="9" rx="3" transform="rotate(90 44 19)" fill="#E19E17"/>
<rect x="29" y="33.5962" width="6" height="9" rx="3" transform="rotate(-50 29 33.5962)" fill="#E19E17"/>
<rect x="10.8943" y="29" width="6" height="9" rx="3" transform="rotate(50 10.8943 29)" fill="#E19E17"/>
</svg>
