<svg width="24" height="25" viewBox="0 0 24 25" fill="none" xmlns="http://www.w3.org/2000/svg">
<ellipse cx="12" cy="18.2373" rx="6" ry="3" stroke="#EB1C25" stroke-width="2"/>
<path d="M12 11.2373V18.2373" stroke="#EB1C25" stroke-width="2"/>
<path fill-rule="evenodd" clip-rule="evenodd" d="M12 12.2373C14.7614 12.2373 17 9.99873 17 7.2373C17 4.47588 14.7614 2.2373 12 2.2373C9.23858 2.2373 7 4.47588 7 7.2373C7 9.99873 9.23858 12.2373 12 12.2373ZM12 8.2373C12.5523 8.2373 13 7.78959 13 7.2373C13 6.68502 12.5523 6.2373 12 6.2373C11.4477 6.2373 11 6.68502 11 7.2373C11 7.78959 11.4477 8.2373 12 8.2373Z" fill="#EB1C25"/>
</svg>
